<?xml version="1.0" encoding="UTF-8" standalone="no"?>
<!-- Created with Inkscape (http://www.inkscape.org/) -->

<svg
   xmlns:osb="http://www.openswatchbook.org/uri/2009/osb"
   xmlns:dc="http://purl.org/dc/elements/1.1/"
   xmlns:cc="http://creativecommons.org/ns#"
   xmlns:rdf="http://www.w3.org/1999/02/22-rdf-syntax-ns#"
   xmlns:svg="http://www.w3.org/2000/svg"
   xmlns="http://www.w3.org/2000/svg"
   xmlns:xlink="http://www.w3.org/1999/xlink"
   xmlns:sodipodi="http://sodipodi.sourceforge.net/DTD/sodipodi-0.dtd"
   xmlns:inkscape="http://www.inkscape.org/namespaces/inkscape"
   width="128"
   height="128"
   id="svg3726"
   version="1.1"
   inkscape:version="0.48.5 r10040"
   sodipodi:docname="audience.svg">
  <defs
     id="defs3728">
    <linearGradient
       id="linearGradient4253">
      <stop
         style="stop-color:#ffffff;stop-opacity:1;"
         offset="0"
         id="stop4255" />
      <stop
         style="stop-color:#000000;stop-opacity:1;"
         offset="1"
         id="stop4257" />
    </linearGradient>
    <linearGradient
       id="linearGradient4074">
      <stop
         id="stop4076"
         offset="0"
         style="stop-color:#eaf5e4;stop-opacity:1;" />
      <stop
         style="stop-color:#eaf5e4;stop-opacity:0.49803922;"
         offset="0.703125"
         id="stop4080" />
      <stop
         id="stop4078"
         offset="1"
         style="stop-color:#eaf5e4;stop-opacity:0;" />
    </linearGradient>
    <linearGradient
       id="linearGradient4046">
      <stop
         style="stop-color:#ffffff;stop-opacity:1;"
         offset="0"
         id="stop4048" />
      <stop
         style="stop-color:#ffffff;stop-opacity:0;"
         offset="1"
         id="stop4050" />
    </linearGradient>
    <linearGradient
       id="linearGradient4010"
       osb:paint="solid">
      <stop
         style="stop-color:#aaaaaa;stop-opacity:1;"
         offset="0"
         id="stop4012" />
    </linearGradient>
    <radialGradient
       inkscape:collect="always"
       xlink:href="#linearGradient5747"
       id="radialGradient4554"
       gradientUnits="userSpaceOnUse"
       gradientTransform="matrix(6.4121087,0,0,2.1999999,586.96202,603.16218)"
       cx="4.993"
       cy="43.5"
       r="2.5" />
    <linearGradient
       id="linearGradient5747">
      <stop
         style="stop-color:#000000;stop-opacity:1;"
         offset="0"
         id="stop5749" />
      <stop
         style="stop-color:#000000;stop-opacity:0;"
         offset="1"
         id="stop5751" />
    </linearGradient>
    <radialGradient
       inkscape:collect="always"
       xlink:href="#linearGradient5747"
       id="radialGradient4551"
       gradientUnits="userSpaceOnUse"
       gradientTransform="matrix(6.4121087,0,0,2.1999999,-565.03799,-794.5622)"
       cx="4.993"
       cy="43.5"
       r="2.5" />
    <linearGradient
       inkscape:collect="always"
       xlink:href="#linearGradient5747"
       id="linearGradient4548"
       gradientUnits="userSpaceOnUse"
       gradientTransform="matrix(3.0714286,0,0,1.5714285,502.28572,630.50504)"
       spreadMethod="reflect"
       x1="24.976742"
       y1="43.5"
       x2="24.976742"
       y2="40" />
    <radialGradient
       inkscape:collect="always"
       xlink:href="#radialGradient3164"
       id="radialGradient4543"
       gradientUnits="userSpaceOnUse"
       gradientTransform="matrix(1.431898e-7,5.93236,-5.8873778,0,625.74717,557.87383)"
       cx="7.4956999"
       cy="8.4497995"
       r="20" />
    <radialGradient
       r="20"
       gradientTransform="matrix(1.273594e-7,3.2957553,-5.3809239,0,77.467708,-19.382411)"
       cx="7.4956999"
       cy="8.4497995"
       gradientUnits="userSpaceOnUse"
       id="radialGradient3164">
      <stop
         offset="0"
         style="stop-color:#7396b0;stop-opacity:1;"
         id="stop3244" />
      <stop
         offset="0.26238"
         style="stop-color:#0f3e60;stop-opacity:1;"
         id="stop3246" />
      <stop
         offset="0.66093999"
         style="stop-color:#103353;stop-opacity:1;"
         id="stop3248" />
      <stop
         offset="1"
         style="stop-color:#368398;stop-opacity:1;"
         id="stop3250" />
    </radialGradient>
    <linearGradient
       inkscape:collect="always"
       xlink:href="#linearGradient3173"
       id="linearGradient4545"
       gradientUnits="userSpaceOnUse"
       gradientTransform="matrix(1.5641028,0,0,2.5384619,538.46157,589.43909)"
       x1="24"
       y1="44"
       x2="24"
       y2="3.8989999" />
    <linearGradient
       id="linearGradient3173"
       y2="3.8989999"
       gradientUnits="userSpaceOnUse"
       x2="24"
       gradientTransform="matrix(2.641026,0,0,2.641026,0.6153903,-60.384616)"
       y1="44"
       x1="24">
      <stop
         id="stop2492"
         style="stop-color:#791235;"
         offset="0" />
      <stop
         id="stop2494"
         style="stop-color:#bf1d09;stop-opacity:1;"
         offset="1" />
    </linearGradient>
    <linearGradient
       inkscape:collect="always"
       xlink:href="#linearGradient3128"
       id="linearGradient4540"
       gradientUnits="userSpaceOnUse"
       gradientTransform="matrix(1.5945947,0,0,2.6216217,537.72974,587.44329)"
       x1="24"
       y1="5.3301001"
       x2="24"
       y2="43" />
    <linearGradient
       id="linearGradient3128"
       y2="43"
       gradientUnits="userSpaceOnUse"
       y1="5.3301001"
       gradientTransform="matrix(2.7297298,0,0,2.7297298,-1.5135111,-62.513486)"
       x2="24"
       x1="24">
      <stop
         id="stop3926"
         style="stop-color:#ffffff;"
         offset="0" />
      <stop
         id="stop3952"
         style="stop-color:#ffffff;stop-opacity:0.23529412;"
         offset="0.02982479" />
      <stop
         id="stop3954"
         style="stop-color:#ffffff;stop-opacity:0.15686275;"
         offset="0.9614116" />
      <stop
         id="stop3956"
         style="stop-color:#ffffff;stop-opacity:0.39215687;"
         offset="1" />
    </linearGradient>
    <linearGradient
       inkscape:collect="always"
       xlink:href="#linearGradient3128"
       id="linearGradient4535"
       gradientUnits="userSpaceOnUse"
       gradientTransform="matrix(0.51351353,0,0,2.6216217,522.67567,587.44329)"
       x1="24"
       y1="5.3301001"
       x2="24"
       y2="43" />
    <linearGradient
       inkscape:collect="always"
       xlink:href="#linearGradient5761"
       id="linearGradient4532"
       gradientUnits="userSpaceOnUse"
       gradientTransform="matrix(0.84615385,0,0,0.84615385,-1253.6699,-1402.6142)"
       x1="667"
       y1="1025.3622"
       x2="681"
       y2="1025.3622" />
    <linearGradient
       id="linearGradient5761">
      <stop
         style="stop-color:#666666;stop-opacity:1;"
         offset="0"
         id="stop5763" />
      <stop
         style="stop-color:#191919;stop-opacity:1;"
         offset="1"
         id="stop5765" />
    </linearGradient>
    <linearGradient
       inkscape:collect="always"
       xlink:href="#linearGradient5761"
       id="linearGradient4528"
       gradientUnits="userSpaceOnUse"
       gradientTransform="matrix(0.84615385,0,0,0.84615385,-1231.6699,-1402.6142)"
       x1="667"
       y1="1025.3622"
       x2="681"
       y2="1025.3622" />
    <linearGradient
       inkscape:collect="always"
       xlink:href="#linearGradient5761"
       id="linearGradient4524"
       gradientUnits="userSpaceOnUse"
       gradientTransform="matrix(0.84615385,0,0,0.84615385,-1209.6699,-1402.6142)"
       x1="667"
       y1="1025.3622"
       x2="681"
       y2="1025.3622" />
    <linearGradient
       inkscape:collect="always"
       xlink:href="#linearGradient5761"
       id="linearGradient4520"
       gradientUnits="userSpaceOnUse"
       gradientTransform="matrix(0.84615385,0,0,0.84615385,-1187.6699,-1402.6142)"
       x1="667"
       y1="1025.3622"
       x2="681"
       y2="1025.3622" />
    <linearGradient
       inkscape:collect="always"
       xlink:href="#linearGradient5648"
       id="linearGradient4513"
       gradientUnits="userSpaceOnUse"
       gradientTransform="matrix(0.28125,0,0,0.28125,583.89345,-650.87498)"
       x1="102.48387"
       y1="412"
       x2="135.51613"
       y2="412" />
    <linearGradient
       id="linearGradient5648">
      <stop
         style="stop-color:#000000;stop-opacity:0.78431374;"
         offset="0"
         id="stop5650" />
      <stop
         id="stop5785"
         offset="0.28472006"
         style="stop-color:#000000;stop-opacity:0;" />
      <stop
         id="stop5783"
         offset="0.71527565"
         style="stop-color:#000000;stop-opacity:0;" />
      <stop
         style="stop-color:#000000;stop-opacity:0.54509807;"
         offset="1"
         id="stop5652" />
    </linearGradient>
    <linearGradient
       inkscape:collect="always"
       xlink:href="#linearGradient5648"
       id="linearGradient4510"
       gradientUnits="userSpaceOnUse"
       gradientTransform="matrix(0.28125,0,0,0.28125,605.89342,-650.87498)"
       x1="102.48387"
       y1="412"
       x2="135.51613"
       y2="412" />
    <linearGradient
       inkscape:collect="always"
       xlink:href="#linearGradient5648"
       id="linearGradient4507"
       gradientUnits="userSpaceOnUse"
       gradientTransform="matrix(0.28125,0,0,0.28125,627.89345,-650.87498)"
       x1="102.48387"
       y1="412"
       x2="135.51613"
       y2="412" />
    <linearGradient
       inkscape:collect="always"
       xlink:href="#linearGradient5648"
       id="linearGradient4504"
       gradientUnits="userSpaceOnUse"
       gradientTransform="matrix(0.28125,0,0,0.28125,649.89345,-650.87498)"
       x1="102.48387"
       y1="412"
       x2="135.51613"
       y2="412" />
    <linearGradient
       inkscape:collect="always"
       xlink:href="#linearGradient3128"
       id="linearGradient4499"
       gradientUnits="userSpaceOnUse"
       gradientTransform="matrix(-0.51351353,0,0,2.6216217,629.32433,587.44329)"
       x1="24"
       y1="5.3301001"
       x2="24"
       y2="43" />
    <linearGradient
       inkscape:collect="always"
       xlink:href="#linearGradient5761"
       id="linearGradient4496"
       gradientUnits="userSpaceOnUse"
       gradientTransform="matrix(0.84615385,0,0,0.84615385,-1253.6699,-250.6142)"
       x1="667"
       y1="1025.3622"
       x2="681"
       y2="1025.3622" />
    <linearGradient
       inkscape:collect="always"
       xlink:href="#linearGradient5761"
       id="linearGradient4492"
       gradientUnits="userSpaceOnUse"
       gradientTransform="matrix(0.84615385,0,0,0.84615385,-1231.6699,-250.6142)"
       x1="667"
       y1="1025.3622"
       x2="681"
       y2="1025.3622" />
    <linearGradient
       inkscape:collect="always"
       xlink:href="#linearGradient5761"
       id="linearGradient4488"
       gradientUnits="userSpaceOnUse"
       gradientTransform="matrix(0.84615385,0,0,0.84615385,-1209.6699,-250.6142)"
       x1="667"
       y1="1025.3622"
       x2="681"
       y2="1025.3622" />
    <linearGradient
       inkscape:collect="always"
       xlink:href="#linearGradient5761"
       id="linearGradient4484"
       gradientUnits="userSpaceOnUse"
       gradientTransform="matrix(0.84615385,0,0,0.84615385,-1187.6699,-250.6142)"
       x1="667"
       y1="1025.3622"
       x2="681"
       y2="1025.3622" />
    <linearGradient
       inkscape:collect="always"
       xlink:href="#linearGradient5648"
       id="linearGradient4477"
       gradientUnits="userSpaceOnUse"
       gradientTransform="matrix(0.28125,0,0,0.28125,583.89345,501.12502)"
       x1="102.48387"
       y1="412"
       x2="135.51613"
       y2="412" />
    <linearGradient
       inkscape:collect="always"
       xlink:href="#linearGradient5648"
       id="linearGradient4474"
       gradientUnits="userSpaceOnUse"
       gradientTransform="matrix(0.28125,0,0,0.28125,605.89342,501.12502)"
       x1="102.48387"
       y1="412"
       x2="135.51613"
       y2="412" />
    <linearGradient
       inkscape:collect="always"
       xlink:href="#linearGradient5648"
       id="linearGradient4471"
       gradientUnits="userSpaceOnUse"
       gradientTransform="matrix(0.28125,0,0,0.28125,627.89345,501.12502)"
       x1="102.48387"
       y1="412"
       x2="135.51613"
       y2="412" />
    <linearGradient
       inkscape:collect="always"
       xlink:href="#linearGradient5648"
       id="linearGradient4468"
       gradientUnits="userSpaceOnUse"
       gradientTransform="matrix(0.28125,0,0,0.28125,649.89345,501.12502)"
       x1="102.48387"
       y1="412"
       x2="135.51613"
       y2="412" />
    <linearGradient
       id="linearGradient3173-4"
       y2="3.8989999"
       gradientUnits="userSpaceOnUse"
       x2="24"
       gradientTransform="matrix(2.641026,0,0,2.641026,0.6153903,-60.384616)"
       y1="44"
       x1="24">
      <stop
         id="stop2492-7"
         style="stop-color:#791235;"
         offset="0" />
      <stop
         id="stop2494-4"
         style="stop-color:#bf1d09;stop-opacity:1;"
         offset="1" />
    </linearGradient>
    <linearGradient
       id="linearGradient3133"
       y2="3.8989999"
       gradientUnits="userSpaceOnUse"
       x2="24"
       gradientTransform="matrix(2.641026,0,0,2.641026,0.6153903,-60.384616)"
       y1="44"
       x1="24">
      <stop
         id="stop3135"
         style="stop-color:#791235;"
         offset="0" />
      <stop
         id="stop3137"
         style="stop-color:#bf1d09;stop-opacity:1;"
         offset="1" />
    </linearGradient>
    <linearGradient
       id="linearGradient3140"
       y2="3.8989999"
       gradientUnits="userSpaceOnUse"
       x2="24"
       gradientTransform="matrix(2.641026,0,0,2.641026,0.6153903,-60.384616)"
       y1="44"
       x1="24">
      <stop
         id="stop3142"
         style="stop-color:#e1e1e1;stop-opacity:1;"
         offset="0" />
      <stop
         id="stop3144"
         style="stop-color:#8d8d8d;stop-opacity:1;"
         offset="1" />
    </linearGradient>
    <linearGradient
       id="linearGradient3147"
       y2="3.8989999"
       gradientUnits="userSpaceOnUse"
       x2="24"
       gradientTransform="matrix(2.641026,0,0,2.641026,0.6153903,-60.384616)"
       y1="44"
       x1="24">
      <stop
         id="stop3149"
         style="stop-color:#791235;"
         offset="0" />
      <stop
         id="stop3151"
         style="stop-color:#bf1d09;stop-opacity:1;"
         offset="1" />
    </linearGradient>
    <linearGradient
       id="linearGradient3154"
       y2="3.8989999"
       gradientUnits="userSpaceOnUse"
       x2="24"
       gradientTransform="matrix(2.641026,0,0,2.641026,0.6153903,-60.384616)"
       y1="44"
       x1="24">
      <stop
         id="stop3156"
         style="stop-color:#791235;"
         offset="0" />
      <stop
         id="stop3158"
         style="stop-color:#bf1d09;stop-opacity:1;"
         offset="1" />
    </linearGradient>
    <linearGradient
       id="linearGradient3161"
       y2="3.8989999"
       gradientUnits="userSpaceOnUse"
       x2="24"
       gradientTransform="matrix(2.641026,0,0,2.641026,0.6153903,-60.384616)"
       y1="44"
       x1="24">
      <stop
         offset="0"
         style="stop-color:#8f638a;stop-opacity:1;"
         id="stop4042" />
      <stop
         id="stop3165"
         style="stop-color:#054962;stop-opacity:1;"
         offset="1" />
    </linearGradient>
    <radialGradient
       inkscape:collect="always"
       xlink:href="#linearGradient4074"
       id="radialGradient4072"
       cx="63.999996"
       cy="64"
       fx="63.999996"
       fy="64"
       r="26.42"
       gradientTransform="matrix(1.2337472,0,0,1.3878488,-14.845878,-25.187401)"
       gradientUnits="userSpaceOnUse" />
    <radialGradient
       inkscape:collect="always"
       xlink:href="#linearGradient3161"
       id="radialGradient4090"
       cx="61.076347"
       cy="64.713943"
       fx="61.076347"
       fy="64.713943"
       r="47.641319"
       gradientTransform="matrix(1,0,0,0.96103896,2.923652,926.16956)"
       gradientUnits="userSpaceOnUse" />
    <linearGradient
       inkscape:collect="always"
       xlink:href="#linearGradient5761"
       id="linearGradient4112"
       gradientUnits="userSpaceOnUse"
       x1="63.947147"
       y1="944.16803"
       x2="64.052856"
       y2="1032.5564" />
    <filter
       inkscape:collect="always"
       id="filter4140">
      <feGaussianBlur
         inkscape:collect="always"
         stdDeviation="3.7370593"
         id="feGaussianBlur4142" />
    </filter>
    <radialGradient
       inkscape:collect="always"
       xlink:href="#linearGradient4074"
       id="radialGradient4154"
       gradientUnits="userSpaceOnUse"
       gradientTransform="matrix(1.2337472,0,0,1.3878488,-58.770206,-25.187401)"
       cx="63.999996"
       cy="64"
       fx="63.999996"
       fy="64"
       r="26.42" />
    <filter
       inkscape:collect="always"
       id="filter4241">
      <feGaussianBlur
         inkscape:collect="always"
         stdDeviation="0.4795608"
         id="feGaussianBlur4243" />
    </filter>
    <linearGradient
       inkscape:collect="always"
       xlink:href="#linearGradient3140"
       id="linearGradient4249"
       gradientUnits="userSpaceOnUse"
       x1="63.947147"
       y1="944.16803"
       x2="64.052856"
       y2="1032.5564" />
    <linearGradient
       inkscape:collect="always"
       xlink:href="#linearGradient4253"
       id="linearGradient4259"
       x1="64.94194"
       y1="942.34613"
       x2="64.94194"
       y2="1033.8"
       gradientUnits="userSpaceOnUse"
       spreadMethod="pad"
       gradientTransform="translate(0,-1976.7244)" />
    <radialGradient
       inkscape:collect="always"
       xlink:href="#linearGradient4074"
       id="radialGradient3863"
       gradientUnits="userSpaceOnUse"
       gradientTransform="matrix(1.2337472,0,0,1.3878488,-58.770206,-25.187401)"
       cx="63.999996"
       cy="64"
       fx="63.999996"
       fy="64"
       r="26.42" />
    <radialGradient
       inkscape:collect="always"
       xlink:href="#linearGradient4074"
       id="radialGradient3865"
       gradientUnits="userSpaceOnUse"
       gradientTransform="matrix(1.2337472,0,0,1.3878488,-58.770206,-25.187401)"
       cx="63.999996"
       cy="64"
       fx="63.999996"
       fy="64"
       r="26.42" />
  </defs>
  <sodipodi:namedview
     id="base"
     pagecolor="#ffffff"
     bordercolor="#666666"
     borderopacity="1.0"
     inkscape:pageopacity="0.0"
     inkscape:pageshadow="2"
     inkscape:zoom="8"
     inkscape:cx="76.785901"
     inkscape:cy="75.675474"
     inkscape:document-units="px"
     inkscape:current-layer="g4146"
     showgrid="false"
     inkscape:window-width="1680"
     inkscape:window-height="1016"
     inkscape:window-x="0"
     inkscape:window-y="0"
     inkscape:window-maximized="1"
     inkscape:snap-page="true"
     inkscape:snap-bbox="false"
     showguides="false"
     inkscape:guide-bbox="true"
     inkscape:snap-to-guides="true">
    <inkscape:grid
       type="xygrid"
       id="grid3106" />
    <sodipodi:guide
       orientation="1,0"
       position="11.98767,82.267455"
       id="guide3108" />
    <sodipodi:guide
       orientation="1,0"
       position="116,85.25"
       id="guide3110" />
  </sodipodi:namedview>
  <metadata
     id="metadata3731">
    <rdf:RDF>
      <cc:Work
         rdf:about="">
        <dc:format>image/svg+xml</dc:format>
        <dc:type
           rdf:resource="http://purl.org/dc/dcmitype/StillImage" />
        <dc:title></dc:title>
      </cc:Work>
    </rdf:RDF>
  </metadata>
  <g
     inkscape:label="Shape"
     inkscape:groupmode="layer"
     id="layer1"
     transform="translate(0,-924.36218)"
     style="display:inline"
     sodipodi:insensitive="true">
    <rect
       ry="7"
       y="942.57703"
       x="16.358681"
       height="91.570328"
       width="95.282639"
       id="rect4114"
       style="fill:#000000;fill-opacity:1;fill-rule:nonzero;stroke:none;filter:url(#filter4140)"
       transform="matrix(1,0,0,0.04633204,0,990.2332)" />
    <rect
       style="fill:url(#radialGradient4090);fill-opacity:1;fill-rule:nonzero;stroke:none"
       id="rect4082"
       width="95.282639"
       height="91.570328"
       x="16.358681"
       y="942.57703"
       ry="7" />
    <path
       inkscape:connector-curvature="0"
       id="path4221"
       d="m 25.181601,941.29378 c -5.496241,0 -10.025351,4.52911 -10.025351,10.02535 l 0,74.08617 c 0,5.4962 4.52911,10.0253 10.025351,10.0253 l 77.636799,0 c 5.49624,0 10.02535,-4.5291 10.02535,-10.0253 l 0,-74.08617 c 0,-5.49624 -4.52911,-10.02535 -10.02535,-10.02535 l -77.636799,0 z m 0,6.68357 77.636799,0 c 1.90915,0 3.34178,1.43263 3.34178,3.34178 l 0,74.08617 c 0,1.9092 -1.43263,3.3417 -3.34178,3.3417 l -77.636799,0 c -1.909151,0 -3.341783,-1.4325 -3.341783,-3.3417 l 0,-74.08617 c 0,-1.90915 1.432632,-3.34178 3.341783,-3.34178 z"
       style="font-size:medium;font-style:normal;font-variant:normal;font-weight:normal;font-stretch:normal;text-indent:0;text-align:start;text-decoration:none;line-height:normal;letter-spacing:normal;word-spacing:normal;text-transform:none;direction:ltr;block-progression:tb;writing-mode:lr-tb;text-anchor:start;baseline-shift:baseline;opacity:0.4;color:#000000;fill:#000000;fill-opacity:0.4;stroke:none;stroke-width:0.5;marker:none;visibility:visible;display:inline;overflow:visible;filter:url(#filter4241);enable-background:accumulate;font-family:Sans;-inkscape-font-specification:Sans" />
    <path
       style="font-size:medium;font-style:normal;font-variant:normal;font-weight:normal;font-stretch:normal;text-indent:0;text-align:start;text-decoration:none;line-height:normal;letter-spacing:normal;word-spacing:normal;text-transform:none;direction:ltr;block-progression:tb;writing-mode:lr-tb;text-anchor:start;baseline-shift:baseline;color:#000000;fill:url(#linearGradient4112);fill-opacity:1;stroke:none;stroke-width:0.5;marker:none;visibility:visible;display:inline;overflow:visible;enable-background:accumulate;font-family:Sans;-inkscape-font-specification:Sans"
       d="m 23.34375,939.0625 c -5.75646,0 -10.5,4.74354 -10.5,10.5 l 0,77.5937 c 0,5.7565 4.74354,10.5 10.5,10.5 l 81.3125,0 c 5.75646,0 10.5,-4.7435 10.5,-10.5 l 0,-77.5937 c 0,-5.75646 -4.74354,-10.5 -10.5,-10.5 l -81.3125,0 z m 0,7 81.3125,0 c 1.99954,0 3.5,1.50046 3.5,3.5 l 0,77.5937 c 0,1.9996 -1.50046,3.5 -3.5,3.5 l -81.3125,0 c -1.99954,0 -3.5,-1.5004 -3.5,-3.5 l 0,-77.5937 c 0,-1.99954 1.50046,-3.5 3.5,-3.5 z"
       id="rect4092"
       inkscape:connector-curvature="0" />
    <rect
       ry="7"
       y="-1034.1473"
       x="16.358681"
       height="91.570328"
       width="95.282639"
       id="rect4251"
       style="opacity:0.5;fill:none;stroke:url(#linearGradient4259);stroke-width:1.5;stroke-miterlimit:4;stroke-opacity:1;stroke-dasharray:none"
       transform="scale(1,-1)" />
  </g>
  <g
     inkscape:groupmode="layer"
     id="layer4"
     inkscape:label="Letter"
     style="display:inline">
    <g
       id="g4146"
       transform="matrix(0.91065707,0,0,0.91065707,5.8612289,8.0504117)">
      <g
         transform="matrix(0.96592583,-0.25881905,0.25881905,0.96592583,0,0)"
         style="font-size:17.27246094px;font-style:italic;font-variant:normal;font-weight:normal;font-stretch:normal;text-indent:0;text-align:end;text-decoration:none;line-height:125%;letter-spacing:0px;word-spacing:0px;text-transform:none;direction:ltr;block-progression:tb;writing-mode:lr-tb;text-anchor:end;baseline-shift:baseline;opacity:0.15;color:#000000;fill:#f5f5e4;fill-opacity:1;fill-rule:nonzero;stroke:none;stroke-width:1px;marker:none;visibility:visible;display:inline;overflow:visible;enable-background:accumulate;font-family:Ubuntu Mono;-inkscape-font-specification:Ubuntu Mono Italic"
         id="text4054">
        <path
           d="m 24.569755,75.571262 c 5.921957,-0.09866 11.251739,-0.345412 15.989364,-0.740248 4.737544,-0.493462 8.734881,-1.332409 11.992023,-2.516844 3.355737,-1.184357 5.921929,-2.812902 7.698583,-4.885639 1.776534,-2.171349 2.664831,-4.88559 2.664894,-8.142732 -6.3e-5,-0.789545 -0.197462,-1.628492 -0.592199,-2.516844 -0.296161,-0.888243 -0.888359,-1.72719 -1.776596,-2.516845 -0.789657,-0.78954 -1.924704,-1.431088 -3.405142,-1.924645 -1.480552,-0.493439 -3.306496,-0.740189 -5.477838,-0.740249 -3.35584,6e-5 -6.51423,0.690958 -9.475179,2.072696 -2.862332,1.283153 -5.477874,3.059748 -7.846632,5.329788 -2.368826,2.171445 -4.39217,4.688287 -6.070037,7.550533 -1.579222,2.862335 -2.812968,5.872676 -3.701241,9.031029 m 14.953016,37.900718 c -4.836323,0 -9.031059,-0.6909 -12.584222,-2.0727 -3.553214,-1.48049 -6.514205,-3.40514 -8.88298,-5.77394 -2.368809,-2.36878 -4.145404,-5.08302 -5.329788,-8.142727 -1.085708,-3.158375 -1.628557,-6.415465 -1.628546,-9.771278 -1.1e-5,-6.218056 0.937636,-12.140037 2.812944,-17.76596 1.97398,-5.62584 4.786921,-10.511474 8.438831,-14.656917 3.651866,-4.24403 8.044002,-7.599819 13.17642,-10.067377 5.231048,-2.566126 11.103679,-3.849222 17.617911,-3.849292 3.849234,7e-5 7.155674,0.493569 9.919327,1.480497 2.763529,0.888366 5.033621,2.122112 6.810285,3.701242 1.776525,1.48056 3.059621,3.257154 3.849291,5.329788 0.888224,2.072753 1.332373,4.244146 1.332447,6.514185 -7.4e-5,6.218133 -1.579269,11.054417 -4.737589,14.508867 -3.15846,3.454528 -7.254496,6.070069 -12.288122,7.846633 -5.033742,1.677925 -10.659623,2.763622 -16.877663,3.257092 -6.11942,0.493526 -12.140101,0.838975 -18.062059,1.036348 -0.592221,6.218106 1.036324,10.758292 4.885639,13.620569 3.84926,2.7636 8.932294,4.1454 15.249116,4.14539 2.07265,1e-5 4.194694,-0.14804 6.366136,-0.44415 2.270043,-0.39479 4.342736,-0.78959 6.218086,-1.1844 1.973938,-0.49348 3.701182,-0.98698 5.181738,-1.480492 1.480435,-0.592186 2.516781,-1.085684 3.109043,-1.480497 l 1.036348,10.363479 c -1.875359,0.987 -4.935049,2.02334 -9.17908,3.10904 -4.244141,1.1844 -9.721974,1.7766 -16.433513,1.7766"
           style="font-size:148.04966736px;fill:#f5f5e4;marker:none;font-family:Ubuntu Mono;-inkscape-font-specification:Ubuntu Mono Italic"
           id="path3858" />
      </g>
      <g
         transform="matrix(0.8660254,-0.5,0.5,0.8660254,-43.924328,0)"
         style="font-size:17.27246094px;font-style:italic;font-variant:normal;font-weight:normal;font-stretch:normal;text-indent:0;text-align:end;text-decoration:none;line-height:125%;letter-spacing:0px;word-spacing:0px;text-transform:none;direction:ltr;block-progression:tb;writing-mode:lr-tb;text-anchor:end;baseline-shift:baseline;opacity:0.05;color:#000000;fill:#f5f5e4;fill-opacity:1;fill-rule:nonzero;stroke:none;stroke-width:1px;marker:none;visibility:visible;display:inline;overflow:visible;enable-background:accumulate;font-family:Ubuntu Mono;-inkscape-font-specification:Ubuntu Mono Italic"
         id="text4062">
        <path
           d="m 41.103301,106.04422 c 5.921957,-0.0987 11.25174,-0.34542 15.989364,-0.74025 4.737545,-0.49346 8.734882,-1.33241 11.992023,-2.51685 3.355737,-1.18435 5.921929,-2.812898 7.698583,-4.885636 1.776535,-2.171348 2.664832,-4.885589 2.664894,-8.142731 -6.2e-5,-0.789545 -0.197462,-1.628493 -0.592199,-2.516845 -0.29616,-0.888242 -0.888358,-1.727189 -1.776596,-2.516844 -0.789657,-0.78954 -1.924703,-1.431088 -3.405142,-1.924646 -1.480552,-0.493439 -3.306496,-0.740188 -5.477838,-0.740248 -3.35584,6e-5 -6.51423,0.690958 -9.475178,2.072695 -2.862333,1.283154 -5.477874,3.059748 -7.846633,5.329788 -2.368826,2.171446 -4.392169,4.688288 -6.070036,7.550533 -1.579223,2.862336 -2.812969,5.872674 -3.701242,9.031034 m 14.953017,37.90071 c -4.836324,0 -9.03106,-0.6909 -12.584222,-2.07269 -3.553215,-1.4805 -6.514205,-3.40514 -8.88298,-5.77394 -2.36881,-2.36879 -4.145404,-5.08303 -5.329788,-8.14273 -1.085709,-3.15838 -1.628557,-6.41547 -1.628547,-9.77128 -10e-6,-6.21806 0.937637,-12.14004 2.812944,-17.76596 1.97398,-5.625841 4.786921,-10.511475 8.438831,-14.656918 3.651867,-4.24403 8.044002,-7.599819 13.176421,-10.067378 5.231048,-2.566125 11.103679,-3.849221 17.61791,-3.849291 3.849235,7e-5 7.155674,0.493569 9.919328,1.480497 2.763528,0.888366 5.033621,2.122112 6.810284,3.701241 1.776525,1.480561 3.059621,3.257155 3.849292,5.329788 0.888224,2.072753 1.332372,4.244146 1.332447,6.514186 -7.5e-5,6.218133 -1.57927,11.054417 -4.73759,14.508865 -3.158459,3.45453 -7.254496,6.07007 -12.288122,7.84663 -5.033741,1.67793 -10.659623,2.76363 -16.877662,3.2571 -6.119421,0.49352 -12.140101,0.83897 -18.062059,1.03634 -0.592221,6.21811 1.036324,10.7583 4.885639,13.62057 3.84926,2.76361 8.932293,4.1454 15.249115,4.14539 2.072651,1e-5 4.194694,-0.14804 6.366136,-0.44414 2.270044,-0.39479 4.342737,-0.78959 6.218086,-1.1844 1.973938,-0.49349 3.701183,-0.98699 5.181738,-1.4805 1.480435,-0.59218 2.516782,-1.08568 3.109043,-1.48049 l 1.036348,10.36347 c -1.875358,0.987 -4.935048,2.02335 -9.179079,3.10904 -4.244142,1.1844 -9.721974,1.7766 -16.433513,1.7766"
           style="font-size:148.04966736px;fill:#f5f5e4;marker:none;font-family:Ubuntu Mono;-inkscape-font-specification:Ubuntu Mono Italic"
           id="path3855"
           inkscape:connector-curvature="0" />
      </g>
      <g
         style="font-size:17.27246094px;font-style:italic;font-variant:normal;font-weight:normal;font-stretch:normal;text-indent:0;text-align:end;text-decoration:none;line-height:125%;letter-spacing:0px;word-spacing:0px;text-transform:none;direction:ltr;block-progression:tb;writing-mode:lr-tb;text-anchor:end;baseline-shift:baseline;color:#000000;fill:url(#radialGradient3865);fill-opacity:1;fill-rule:nonzero;stroke:none;stroke-width:1px;marker:none;visibility:visible;display:inline;overflow:visible;enable-background:accumulate;font-family:Ubuntu Mono;-inkscape-font-specification:Ubuntu Mono Italic"
         id="text3238"
         transform="translate(43.924328,0)">
        <path
           d="M 1.6834022,61.784298 C 7.605359,61.685634 12.935142,61.438885 17.672766,61.04405 c 4.737545,-0.493462 8.734882,-1.332409 11.992023,-2.516845 3.355737,-1.184357 5.921929,-2.812901 7.698583,-4.885639 1.776535,-2.171348 2.664832,-4.88559 2.664894,-8.142731 -6.2e-5,-0.789546 -0.197462,-1.628493 -0.592199,-2.516845 -0.29616,-0.888242 -0.888358,-1.727189 -1.776596,-2.516844 -0.789657,-0.78954 -1.924703,-1.431088 -3.405142,-1.924646 -1.480552,-0.493439 -3.306496,-0.740188 -5.477838,-0.740248 -3.35584,6e-5 -6.51423,0.690958 -9.475178,2.072695 -2.862333,1.283154 -5.477874,3.059748 -7.846633,5.329788 -2.3688258,2.171446 -4.3921693,4.688288 -6.0700361,7.550533 -1.5792226,2.862336 -2.8129686,5.872676 -3.7012417,9.03103 M 16.636419,99.685013 c -4.836324,-2e-6 -9.03106,-0.6909 -12.5842221,-2.072696 -3.55321485,-1.480494 -6.5142052,-3.405138 -8.8829801,-5.773937 -2.3688098,-2.368786 -4.145404,-5.083027 -5.3297878,-8.142731 -1.085709,-3.158376 -1.628557,-6.415465 -1.628547,-9.771278 -10e-6,-6.218056 0.937637,-12.140037 2.8129441,-17.76596 1.9739803,-5.62584 4.7869212,-10.511475 8.43883108,-14.656918 C 3.1145236,37.257464 7.5066593,33.901675 12.639078,31.434116 c 5.231048,-2.566125 11.103679,-3.849221 17.61791,-3.849291 3.849235,7e-5 7.155674,0.493568 9.919328,1.480496 2.763528,0.888366 5.033621,2.122112 6.810284,3.701242 1.776525,1.48056 3.059621,3.257155 3.849292,5.329788 0.888224,2.072753 1.332372,4.244146 1.332447,6.514185 -7.5e-5,6.218134 -1.57927,11.054418 -4.73759,14.508868 -3.158459,3.454527 -7.254496,6.070069 -12.288122,7.846632 -5.033741,1.677926 -10.659623,2.763622 -16.877662,3.257093 -6.119421,0.493526 -12.1401012,0.838975 -18.06205948,1.036348 -0.59222058,6.218106 1.03632408,10.758291 4.88563898,13.620569 3.8492602,2.763604 8.9322935,4.1454 15.2491155,4.145391 2.072651,9e-6 4.194694,-0.148041 6.366136,-0.444149 2.270044,-0.39479 4.342737,-0.789588 6.218086,-1.184398 1.973938,-0.493488 3.701183,-0.986986 5.181738,-1.480496 1.480435,-0.592186 2.516782,-1.085685 3.109043,-1.480497 l 1.036348,10.363477 c -1.875358,0.987 -4.935048,2.023346 -9.179079,3.109043 -4.244142,1.184396 -9.721974,1.776594 -16.433513,1.776596"
           style="font-size:148.04966736px;fill:url(#radialGradient3863);marker:none;font-family:Ubuntu Mono;-inkscape-font-specification:Ubuntu Mono Italic"
           id="path3861"
           inkscape:connector-curvature="0" />
      </g>
    </g>
  </g>
</svg>
